<?xml version="1.0" encoding="UTF-8" standalone="no"?>
<!-- Created with Inkscape (http://www.inkscape.org/) -->

<svg
   width="1200"
   height="1200"
   viewBox="0 0 317.49999 317.5"
   version="1.1"
   id="svg5"
   inkscape:version="1.2.1 (9c6d41e410, 2022-07-14)"
   sodipodi:docname="donut drawing.svg"
   xmlns:inkscape="http://www.inkscape.org/namespaces/inkscape"
   xmlns:sodipodi="http://sodipodi.sourceforge.net/DTD/sodipodi-0.dtd"
   xmlns="http://www.w3.org/2000/svg"
   xmlns:svg="http://www.w3.org/2000/svg">
  <sodipodi:namedview
     id="namedview7"
     pagecolor="#505050"
     bordercolor="#ffffff"
     borderopacity="1"
     inkscape:showpageshadow="0"
     inkscape:pageopacity="0"
     inkscape:pagecheckerboard="1"
     inkscape:deskcolor="#505050"
     inkscape:document-units="mm"
     showgrid="false"
     inkscape:zoom="1.4142136"
     inkscape:cx="554.72527"
     inkscape:cy="483.30749"
     inkscape:window-width="1920"
     inkscape:window-height="1112"
     inkscape:window-x="-8"
     inkscape:window-y="-8"
     inkscape:window-maximized="1"
     inkscape:current-layer="layer1" />
  <defs
     id="defs2" />
  <g
     inkscape:label="Layer 1"
     inkscape:groupmode="layer"
     id="layer1">
    <path
       id="path1543"
       style="fill:#c87137;stroke:#100806;stroke-width:1.00012;stroke-opacity:1"
       d="M 163.25619,75.141666 A 51.329166,51.329166 0 0 0 111.92702,126.47083 51.329166,51.329166 0 0 0 163.25619,177.8 51.329166,51.329166 0 0 0 214.58535,126.47083 51.329166,51.329166 0 0 0 163.25619,75.141666 Z m 0,34.603574 a 18.321507,18.321507 0 0 1 18.32136,18.32136 18.321507,18.321507 0 0 1 -18.32136,18.32136 18.321507,18.321507 0 0 1 -18.32136,-18.32136 18.321507,18.321507 0 0 1 18.32136,-18.32136 z" />
    <g
       id="path7621"
       transform="translate(32.279167,-0.52916667)">
      <path
         style="color:#000000;fill:#000000;stroke-width:2.77813;stroke-linecap:round"
         d="m 130.81785,73.838904 c -0.40864,-0.0031 -0.81762,-0.0018 -1.22628,0.0047 -14.78092,0.179152 -29.34955,6.856048 -39.109754,17.962728 -8.97379,10.082888 -14.260894,23.988278 -13.434839,37.158458 3.57e-4,0.0115 0.03387,4.88472 0.183174,5.04505 0.149306,0.16032 0.942305,-2.97585 0.877955,-2.95861 -0.279379,0.0749 -2.33129,3.0067 0.282666,4.51587 1.051312,0.60698 0.381293,-2.63938 0.381681,-2.62788 -0.195573,5.9528 -1.776609,12.92844 6.009389,12.92844 11.547051,0 1.456512,-21.75507 12.997987,-21.75507 11.519281,0 -0.403627,14.2098 12.334841,14.2098 3.93433,0 4.96743,-5.49052 4.15226,-9.21963 -0.0554,-4.4837 1.7967,-8.97544 5.09736,-12.03905 2.02305,-1.8859 4.48155,-3.23875 7.12463,-3.88969 1.22763,-0.31069 2.49151,-0.4725 3.75739,-0.49403 1.68612,-0.0271 3.23859,0.18297 4.89221,0.69092 4.97608,1.49825 9.13766,5.49662 10.69186,10.47429 0.55428,1.66818 0.81862,3.46071 0.79323,5.25756 -8.8e-4,7.58125 0.64627,17.21015 5.88867,17.21015 11.50237,0 3.19917,-22.24644 12.91855,-22.10599 9.9839,0.14427 2.1908,22.41068 12.81927,22.41068 5.17288,0 5.72411,-9.66276 5.59087,-17.51484 0.31073,-9.61324 -1.95087,-19.31441 -6.65644,-27.71872 -6.14321,-11.138667 -16.38596,-19.962974 -28.36312,-24.279653 -5.7569,-2.105772 -11.87385,-3.219123 -18.00356,-3.265434 z"
         id="path13433" />
      <path
         style="color:#000000;fill:#100806;stroke-linecap:round"
         d="m 130.82812,72.449219 c -0.41861,-0.0032 -0.83736,-8.28e-4 -1.25781,0.0059 -15.18672,0.18517 -30.103256,7.020364 -40.13281,18.433553 -9.212007,10.353738 -14.630234,24.564078 -13.777344,38.162108 l -0.002,-0.043 c 1.79e-4,0.006 0.0078,1.19975 0.03516,2.45313 0.01369,0.62669 0.03317,1.25861 0.05859,1.76367 0.01271,0.25253 0.02515,0.47085 0.04492,0.66406 0.0099,0.0966 0.01952,0.18365 0.04102,0.29688 0.0084,0.044 0.02446,0.10449 0.04297,0.16992 0.0283,0.12014 -0.03074,0.21655 0.01172,0.33789 0.218621,0.62475 0.699863,1.18451 1.296875,1.66016 -0.111084,1.89256 -0.15843,3.80089 0.238281,5.58398 0.321569,1.44535 0.993183,2.84877 2.240235,3.83594 1.247052,0.98717 2.959369,1.48242 5.113281,1.48242 3.322934,0 5.55843,-1.86635 6.560547,-4.24805 1.002117,-2.38169 1.144452,-5.20634 1.326172,-7.92578 0.181719,-2.71944 0.401596,-5.33379 1.115234,-7.03125 0.713638,-1.69746 1.547112,-2.54883 3.996094,-2.54883 2.594235,0 3.306575,0.60263 3.767585,1.47852 0.461,0.87589 0.52865,2.46173 0.55468,4.25781 0.026,1.79608 0.0229,3.83536 1.16211,5.61328 1.13917,1.77792 3.4087,2.85938 6.85156,2.85938 1.30667,0 2.48828,-0.49539 3.35157,-1.27149 0.86329,-0.77609 1.43392,-1.78768 1.81445,-2.86718 0.76105,-2.15901 0.8059,-4.64253 0.3418,-6.76563 l 0.0332,0.2793 c -0.0505,-4.0898 1.65797,-8.22459 4.65234,-11.00391 l 0.002,-0.002 c 1.85483,-1.72909 4.1064,-2.96474 6.50976,-3.55664 l 0.006,-0.002 h 0.004 c 1.119,-0.28319 2.27617,-0.43334 3.43945,-0.45312 1.55709,-0.025 2.93783,0.163 4.46094,0.63086 h 0.004 l 0.004,0.002 c 4.52753,1.3632 8.35861,5.0523 9.76563,9.5586 l 0.004,0.0117 0.004,0.0117 c 0.50206,1.51102 0.74594,3.15318 0.72265,4.80078 v 0.01 0.01 c -4.4e-4,3.83021 0.14597,8.19615 1.01758,11.77539 0.43581,1.78962 1.04356,3.39939 2.03321,4.66601 0.98965,1.26662 2.49074,2.15625 4.22656,2.15625 3.32335,0 5.61678,-1.8626 6.75976,-4.26562 1.14299,-2.40302 1.45966,-5.2938 1.75,-8.08399 0.29035,-2.79019 0.55214,-5.4937 1.21094,-7.26562 0.3294,-0.88596 0.73501,-1.50916 1.20508,-1.89453 0.47007,-0.38538 1.02117,-0.60946 1.97266,-0.59571 0.9886,0.0143 1.60142,0.26582 2.12304,0.69141 0.52163,0.42559 0.96592,1.08663 1.32813,1.99609 0.72442,1.81893 1.04253,4.53886 1.35742,7.33789 0.31489,2.79904 0.62414,5.68109 1.67773,8.07422 1.0536,2.39313 3.2114,4.31055 6.35352,4.31055 1.72567,0 3.21718,-0.90433 4.18359,-2.18359 0.96642,-1.27927 1.54785,-2.9004 1.95703,-4.71094 0.81381,-3.60095 0.90311,-8.01157 0.8379,-11.96289 0.31864,-9.858 -1.99556,-19.80098 -6.82813,-28.43555 v -0.002 C 172.09333,89.275211 161.60366,80.237519 149.29944,75.801091 143.82694,73.79935 138.0319,72.771144 132.20764,72.578435 v -0.117188 z m -0.0215,2.779297 c 5.9685,0.04509 11.93,1.128704 17.53711,3.179687 l 0.004,0.002 0.002,0.002 c 11.64673,4.197588 21.64144,12.804011 27.61914,23.642577 l 0.002,0.004 0.002,0.004 c 4.57564,8.17226 6.78319,17.63054 6.48046,26.99609 l -0.002,0.0332 v 0.0351 c 0.0659,3.88388 -0.0543,8.19779 -0.77148,11.3711 -0.35858,1.58665 -0.87525,2.87251 -1.46289,3.65039 -0.58765,0.77788 -1.10603,1.08008 -1.9668,1.08008 -2.17211,0 -3.0241,-0.86602 -3.81055,-2.65235 -0.78644,-1.78632 -1.14756,-4.48003 -1.46093,-7.26562 -0.31338,-2.7856 -0.58263,-5.65809 -1.53711,-8.05469 -0.47725,-1.1983 -1.14571,-2.30138 -2.15039,-3.12109 -1.00469,-0.81972 -2.33248,-1.29463 -3.83985,-1.31641 -1.47836,-0.0214 -2.79426,0.42026 -3.77539,1.22461 -0.98113,0.80434 -1.61014,1.89433 -2.04883,3.07422 -0.87737,2.35978 -1.08257,5.19145 -1.36914,7.94531 -0.28657,2.75386 -0.65715,5.41589 -1.49609,7.17969 -0.83894,1.76379 -1.82217,2.68164 -4.25,2.68164 -0.88538,0 -1.43102,-0.31414 -2.03711,-1.08985 -0.60609,-0.77571 -1.14227,-2.04607 -1.52344,-3.61132 -0.76105,-3.12525 -0.93929,-7.35327 -0.93945,-11.09961 0.0274,-1.94209 -0.2574,-3.88301 -0.86133,-5.70508 -1.70451,-5.44143 -6.19062,-9.74257 -11.60937,-11.375 -7.4e-4,-2.3e-4 -0.001,-0.002 -0.002,-0.002 -1.78129,-0.54629 -3.50201,-0.77913 -5.31445,-0.75 h -0.002 c -1.36582,0.0232 -2.73263,0.19826 -4.06641,0.53515 -2.88191,0.70976 -5.54545,2.17702 -7.73633,4.21875 -3.60694,3.3479 -5.60128,8.19663 -5.54101,13.07422 v 0.14258 l 0.0312,0.13672 c 0.35106,1.60601 0.28723,3.73147 -0.24805,5.25 -0.26764,0.75926 -0.64126,1.35469 -1.05273,1.72461 -0.41148,0.36991 -0.83365,0.56054 -1.49415,0.56054 -2.92636,0 -3.94376,-0.69366 -4.51171,-1.58007 -0.56796,-0.88642 -0.69916,-2.39989 -0.72461,-4.15625 -0.0255,-1.75637 0.0663,-3.72328 -0.875,-5.51172 -0.94132,-1.78845 -3.05921,-2.96289 -6.224613,-2.96289 -3.32175,0 -5.555372,1.86838 -6.556641,4.25 -1.001269,2.38161 -1.14446,5.20646 -1.326172,7.92578 -0.181711,2.71932 -0.40105,5.33387 -1.115234,7.03125 -0.714184,1.69737 -1.549414,2.54883 -4,2.54883 -1.739083,0 -2.74847,-0.37603 -3.388672,-0.88282 -0.640202,-0.50678 -1.019978,-1.21906 -1.251953,-2.26172 -0.305084,-1.37125 -0.239397,-3.25496 -0.132813,-5.23437 0.03403,-0.0661 0.159219,-0.12785 0.181641,-0.18555 0.245686,-0.63221 0.195788,-1.05848 0.173828,-1.50586 -0.02196,-0.44738 -0.07968,-0.87137 -0.130859,-1.19531 -0.02559,-0.16197 -0.04995,-0.29643 -0.06836,-0.39453 -0.0092,-0.0491 -0.01745,-0.0894 -0.02344,-0.11914 -0.003,-0.0149 -0.0051,-0.0265 -0.0078,-0.0391 -0.0013,-0.006 -9.69e-4,-0.0124 -0.0039,-0.0254 -0.0015,-0.007 -0.0026,-0.0109 -0.0098,-0.0391 -0.0036,-0.0141 -0.03514,-0.11322 -0.03516,-0.11328 -6e-6,-2e-5 -0.505704,0.0951 -0.917968,0.17188 0.07548,-0.28615 0.151776,-0.58075 0.205078,-0.8086 0.03644,-0.15578 0.06506,-0.28727 0.08789,-0.4082 0.01141,-0.0605 0.02282,-0.11019 0.0332,-0.20898 0.0052,-0.0494 0.01812,-0.0936 0.0059,-0.26758 -0.0031,-0.0435 -0.0083,-0.0968 -0.02344,-0.17383 -0.01514,-0.077 -0.109078,-0.33141 -0.109375,-0.33203 -1.48e-4,-3.1e-4 -0.169748,-0.26932 -0.169922,-0.26953 -1.73e-4,-2.2e-4 -0.353316,-0.31433 -0.353515,-0.31446 -1.41e-4,-8e-5 -0.231002,-0.0808 -0.394531,-0.13867 -0.0023,-0.22331 -0.01166,-0.80866 -0.01172,-0.81055 v -0.0215 l -0.002,-0.0234 c -0.79905,-12.73963 4.35368,-26.33498 13.085937,-36.146477 l 0.002,-0.0039 0.0039,-0.0039 C 101.01537,81.923485 115.23563,75.406639 129.60937,75.232422 h 0.002 0.002 c 0.39687,-0.0063 0.7947,-0.0069 1.19336,-0.0039 z"
         id="path13435" />
    </g>
    <path
       id="path4560"
       style="fill:#552200;stroke:none;stroke-width:1.00012"
       d="m 163.09702,73.309737 c -0.40864,-0.0031 -0.81762,-0.0018 -1.22628,0.0047 -14.78092,0.179152 -29.34955,6.856048 -39.10976,17.962728 -8.97379,10.082885 -14.26089,23.988275 -13.43484,37.158455 3.6e-4,0.0115 0.0339,4.88472 0.18318,5.04505 0.1493,0.16032 0.9423,-2.97585 0.87795,-2.95861 -0.27938,0.0749 -2.33129,3.0067 0.28267,4.51587 1.05131,0.60698 0.38129,-2.63938 0.38168,-2.62788 -0.19557,5.9528 -1.77661,12.92844 6.00939,12.92844 11.54705,0 1.45651,-21.75507 12.99799,-21.75507 11.51928,0 -0.40363,14.2098 12.33484,14.2098 3.93433,0 4.96743,-5.49052 4.15226,-9.21963 -0.0554,-4.4837 1.7967,-8.97544 5.09736,-12.03905 2.02305,-1.8859 4.48155,-3.23875 7.12463,-3.88969 1.22763,-0.31069 2.49151,-0.4725 3.75739,-0.49403 1.68612,-0.0271 3.23859,0.18297 4.89221,0.69092 4.97608,1.49825 9.13766,5.49662 10.69186,10.47429 0.55428,1.66818 0.81862,3.46071 0.79323,5.25756 -8.8e-4,7.58125 0.44783,17.34244 5.69023,17.34244 11.50237,0 3.39761,-22.37873 13.11699,-22.23828 9.9839,0.14427 2.1908,22.41068 12.81927,22.41068 5.17288,0 5.72411,-9.66276 5.59087,-17.51484 0.31073,-9.61324 -1.95087,-19.31441 -6.65644,-27.71872 -6.14321,-11.138664 -16.38596,-19.962971 -28.36312,-24.27965 -5.7569,-2.105772 -11.87385,-3.219123 -18.00356,-3.265434 z"
       sodipodi:nodetypes="ccccssscssscccccccssscccsc" />
    <rect
       style="opacity:1;fill:#ff0000;stroke:none;stroke-width:0.941077;stroke-linecap:round;stroke-dasharray:none;stroke-opacity:1"
       id="rect68516"
       width="11.874063"
       height="3.5070081"
       x="150.43767"
       y="57.182541"
       rx="3.3736916"
       ry="1.5659102"
       transform="rotate(18.896827)" />
    <rect
       style="opacity:1;fill:#ff0000;stroke:none;stroke-width:0.941077;stroke-linecap:round;stroke-dasharray:none;stroke-opacity:1"
       id="rect68518"
       width="11.874063"
       height="3.5070081"
       x="162.377"
       y="33.239967"
       rx="3.3736916"
       ry="1.5659102"
       transform="rotate(18.896827)" />
    <rect
       style="opacity:1;fill:#ff0000;stroke:none;stroke-width:0.941077;stroke-linecap:round;stroke-dasharray:none;stroke-opacity:1"
       id="rect68520"
       width="11.874063"
       height="3.5070081"
       x="227.02505"
       y="39.914543"
       rx="3.3736916"
       ry="1.5659102"
       transform="rotate(18.896827)" />
    <rect
       style="opacity:1;fill:#ff00ff;stroke:none;stroke-width:0.941077;stroke-linecap:round;stroke-dasharray:none;stroke-opacity:1"
       id="rect68522"
       width="11.874063"
       height="3.5070081"
       x="200.94423"
       y="42.969616"
       rx="3.3736916"
       ry="1.5659102"
       transform="rotate(18.896827)" />
    <rect
       style="opacity:1;fill:#ffff00;stroke:none;stroke-width:0.941077;stroke-linecap:round;stroke-dasharray:none;stroke-opacity:1"
       id="rect68524"
       width="11.874063"
       height="3.5070081"
       x="200.33368"
       y="19.128214"
       rx="3.3736916"
       ry="1.5659102"
       transform="rotate(18.896827)" />
    <rect
       style="opacity:1;fill:#ff00ff;stroke:none;stroke-width:0.941077;stroke-linecap:round;stroke-dasharray:none;stroke-opacity:1"
       id="rect68460"
       width="11.874063"
       height="3.5070081"
       x="144.15659"
       y="77.230621"
       rx="3.3736916"
       ry="1.5659102"
       transform="rotate(18.896827)" />
    <circle
       style="opacity:1;fill:#ff00ff;stroke:none;stroke-width:2.77813;stroke-linecap:round;stroke-dasharray:none;stroke-opacity:1"
       id="circle68526"
       cx="172.24374"
       cy="93.662498"
       r="2.6458333" />
    <circle
       style="opacity:1;fill:#ffff00;stroke:none;stroke-width:2.77813;stroke-linecap:round;stroke-dasharray:none;stroke-opacity:1"
       id="circle68528"
       cx="146.04999"
       cy="109.5375"
       r="2.6458333" />
    <circle
       style="opacity:1;fill:#00ffff;stroke:none;stroke-width:2.77813;stroke-linecap:round;stroke-dasharray:none;stroke-opacity:1"
       id="circle68530"
       cx="201.87708"
       cy="100.27708"
       r="2.6458333" />
    <circle
       style="opacity:1;fill:#00ffff;stroke:none;stroke-width:2.77813;stroke-linecap:round;stroke-dasharray:none;stroke-opacity:1"
       id="circle68532"
       cx="186.53125"
       cy="129.11667"
       r="2.6458333" />
    <circle
       style="opacity:1;fill:#00ffff;stroke:none;stroke-width:2.77813;stroke-linecap:round;stroke-dasharray:none;stroke-opacity:1"
       id="circle68534"
       cx="131.7625"
       cy="91.810417"
       r="2.6458333" />
    <circle
       style="opacity:1;fill:#ffff00;stroke:none;stroke-width:2.77813;stroke-linecap:round;stroke-dasharray:none;stroke-opacity:1"
       id="circle68536"
       cx="117.21041"
       cy="137.58333"
       r="2.6458333" />
    <ellipse
       style="opacity:1;fill:#552200;fill-opacity:1;stroke:none;stroke-width:0.4375;stroke-linecap:round;stroke-dasharray:none;stroke-opacity:1"
       id="path68590"
       cx="110.99271"
       cy="133.74687"
       rx="1.6205729"
       ry="1.3890624" />
    <rect
       style="opacity:1;fill:#ff0000;stroke:none;stroke-width:0.941077;stroke-linecap:round;stroke-dasharray:none;stroke-opacity:1"
       id="rect71308"
       width="11.874063"
       height="3.5070081"
       x="124.88746"
       y="36.266766"
       rx="3.3736916"
       ry="1.5659102"
       transform="rotate(18.896827)" />
    <rect
       style="opacity:1;fill:#ff00ff;stroke:none;stroke-width:0.941077;stroke-linecap:round;stroke-dasharray:none;stroke-opacity:1"
       id="rect71310"
       width="11.874063"
       height="3.5070081"
       x="254.43829"
       y="80.817841"
       rx="3.3736916"
       ry="1.5659102"
       transform="rotate(18.896827)" />
    <circle
       style="opacity:1;fill:#ffff00;stroke:none;stroke-width:2.77813;stroke-linecap:round;stroke-dasharray:none;stroke-opacity:1"
       id="circle71312"
       cx="111.99985"
       cy="91.015717"
       r="2.6458333" />
    <circle
       style="opacity:1;fill:#00ffff;stroke:none;stroke-width:2.77813;stroke-linecap:round;stroke-dasharray:none;stroke-opacity:1"
       id="circle71314"
       cx="223.39227"
       cy="147.79761"
       r="2.6458333" />
    <rect
       style="opacity:1;fill:#ffff00;stroke:none;stroke-width:0.941077;stroke-linecap:round;stroke-dasharray:none;stroke-opacity:1"
       id="rect71316"
       width="11.874063"
       height="3.5070081"
       x="248.36192"
       y="98.199028"
       rx="3.3736916"
       ry="1.5659102"
       transform="rotate(18.896827)" />
    <rect
       style="opacity:1;fill:#ff00ff;stroke:none;stroke-width:0.941077;stroke-linecap:round;stroke-dasharray:none;stroke-opacity:1"
       id="rect71318"
       width="11.874063"
       height="3.5070081"
       x="117.54475"
       y="60.444672"
       rx="3.3736916"
       ry="1.5659102"
       transform="rotate(18.896827)" />
  </g>
</svg>
