<?xml version="1.0" encoding="UTF-8" standalone="no"?>
<!-- Created with Inkscape (http://www.inkscape.org/) -->

<svg
   width="210mm"
   height="297mm"
   viewBox="0 0 210 297"
   version="1.1"
   id="svg5"
   inkscape:version="1.2.1 (9c6d41e410, 2022-07-14)"
   sodipodi:docname="Nebula logo.svg"
   xmlns:inkscape="http://www.inkscape.org/namespaces/inkscape"
   xmlns:sodipodi="http://sodipodi.sourceforge.net/DTD/sodipodi-0.dtd"
   xmlns="http://www.w3.org/2000/svg"
   xmlns:svg="http://www.w3.org/2000/svg">
  <sodipodi:namedview
     id="namedview7"
     pagecolor="#505050"
     bordercolor="#ffffff"
     borderopacity="1"
     inkscape:showpageshadow="0"
     inkscape:pageopacity="0"
     inkscape:pagecheckerboard="1"
     inkscape:deskcolor="#505050"
     inkscape:document-units="px"
     showgrid="false"
     showborder="false"
     inkscape:zoom="0.7072744"
     inkscape:cx="304.6908"
     inkscape:cy="248.13566"
     inkscape:window-width="1920"
     inkscape:window-height="1112"
     inkscape:window-x="-8"
     inkscape:window-y="-8"
     inkscape:window-maximized="1"
     inkscape:current-layer="layer1" />
  <defs
     id="defs2" />
  <g
     inkscape:label="Layer 1"
     inkscape:groupmode="layer"
     id="layer1">
    <g
       id="g17820"
       transform="rotate(-19.282244,211.65679,41.559562)">
      <path
         id="use2353"
         style="fill:#00004d;fill-opacity:1;stroke:#ffffff;stroke-width:0;stroke-dasharray:none"
         d="M 136.525,44.68055 A 52.916667,50.501381 0 0 1 83.608335,95.181933 52.916667,50.501381 0 0 1 30.691666,44.68055 52.916667,50.501381 0 0 1 83.608335,-5.8208306 52.916667,50.501381 0 0 1 136.525,44.68055 Z" />
      <path
         id="path6884"
         style="fill:#5656ff;fill-opacity:1;stroke-width:0.194964"
         d="m 135.52868,54.415283 a 52.916667,50.501381 0 0 1 -0.0579,0.294556 52.916667,50.501381 0 0 1 -0.32091,1.409216 52.916667,50.501381 0 0 1 -0.36328,1.399915 52.916667,50.501381 0 0 1 -0.40515,1.389579 52.916667,50.501381 0 0 1 -0.44648,1.377694 52.916667,50.501381 0 0 1 -0.48731,1.365291 52.916667,50.501381 0 0 1 -0.52813,1.351339 52.916667,50.501381 0 0 1 -0.56845,1.336352 52.916667,50.501381 0 0 1 -0.60823,1.320333 52.916667,50.501381 0 0 1 -0.64699,1.30328 52.916667,50.501381 0 0 1 -0.10076,0.189136 92.198308,22.852437 0 0 0 42.0243,-19.164205 92.198308,22.852437 0 0 0 -39.03844,-18.669662 52.916667,50.501381 0 0 1 0.92501,2.965194 52.916667,50.501381 0 0 1 0.8971,4.085022 52.916667,50.501381 0 0 1 0.54105,4.141866 52.916667,50.501381 0 0 1 0.0667,1.537891 60.567806,15.012446 0 0 1 4.97799,5.939689 60.567806,15.012446 0 0 1 -5.86011,6.427514 z" />
      <path
         id="path13448"
         style="fill:#5656ff;fill-opacity:1;stroke-width:0.194964"
         d="m 32.286401,56.967066 a 52.916667,50.501381 0 0 0 0.02429,0.110587 52.916667,50.501381 0 0 0 1.247986,4.00079 52.916667,50.501381 0 0 0 1.590084,3.888134 52.916667,50.501381 0 0 0 1.581299,3.08715 92.198308,22.852437 0 0 0 44.091366,2.786394 92.198308,22.852437 0 0 0 50.173684,-3.688147 52.916667,50.501381 0 0 0 0.10076,-0.189136 52.916667,50.501381 0 0 0 0.64699,-1.30328 52.916667,50.501381 0 0 0 0.60823,-1.320333 52.916667,50.501381 0 0 0 0.56845,-1.336352 52.916667,50.501381 0 0 0 0.52813,-1.351339 52.916667,50.501381 0 0 0 0.48731,-1.365291 52.916667,50.501381 0 0 0 0.44648,-1.377694 52.916667,50.501381 0 0 0 0.40515,-1.389579 52.916667,50.501381 0 0 0 0.36328,-1.399915 52.916667,50.501381 0 0 0 0.32091,-1.409216 52.916667,50.501381 0 0 0 0.0579,-0.294556 60.567806,15.012446 0 0 1 -54.707254,8.585006 60.567806,15.012446 0 0 1 -48.535023,-6.033223 z" />
      <path
         id="path13446"
         style="fill:#5656ff;fill-opacity:1;stroke-width:0.194964"
         d="m 33.528186,28.380697 a 92.198308,22.852437 0 0 0 -44.905269,19.607072 92.198308,22.852437 0 0 0 48.107141,20.065958 52.916667,50.501381 0 0 1 -1.581299,-3.08715 52.916667,50.501381 0 0 1 -1.590084,-3.888134 52.916667,50.501381 0 0 1 -1.247986,-4.00079 52.916667,50.501381 0 0 1 -0.02429,-0.110587 60.567806,15.012446 0 0 1 -12.032857,-8.979297 60.567806,15.012446 0 0 1 10.755416,-8.523511 52.916667,50.501381 0 0 1 0.404627,-3.095935 52.916667,50.501381 0 0 1 0.897102,-4.085022 52.916667,50.501381 0 0 1 1.217497,-3.902604 z" />
      <path
         id="path13435"
         style="fill:none;fill-opacity:1;stroke-width:0.219571"
         d="M 136.525,44.68055 A 52.916667,50.501381 0 0 1 83.608335,95.181933 52.916667,50.501381 0 0 1 30.691666,44.68055 52.916667,50.501381 0 0 1 83.608335,-5.8208306 52.916667,50.501381 0 0 1 136.525,44.68055 Z" />
    </g>
    <path
       sodipodi:type="star"
       style="fill:#ffffff;fill-opacity:1;stroke:#000000;stroke-width:0;stroke-dasharray:none"
       id="path23849"
       inkscape:flatsided="false"
       sodipodi:sides="5"
       sodipodi:cx="147.39095"
       sodipodi:cy="-16.646946"
       sodipodi:r1="6.743979"
       sodipodi:r2="3.3719895"
       sodipodi:arg1="1.6262948"
       sodipodi:arg2="2.2546134"
       inkscape:rounded="0"
       inkscape:randomized="0"
       d="m 147.01686,-9.9133503 -1.75619,-4.1197407 -4.38935,-0.888839 3.37541,-2.943304 -0.51105,-4.449189 3.84231,2.300679 4.07351,-1.860912 -1.00074,4.365202 3.02862,3.299083 -4.4608,0.397164 z"
       inkscape:transform-center-x="0.115602"
       inkscape:transform-center-y="0.53305954"
       transform="translate(4.1149753,41.523841)" />
    <path
       sodipodi:type="star"
       style="fill:#ffffff;fill-opacity:1;stroke:#000000;stroke-width:0;stroke-dasharray:none"
       id="path23851"
       inkscape:flatsided="false"
       sodipodi:sides="5"
       sodipodi:cx="48.818569"
       sodipodi:cy="109.60797"
       sodipodi:r1="10.733476"
       sodipodi:r2="5.3667383"
       sodipodi:arg1="0.39345064"
       sodipodi:arg2="1.0217692"
       inkscape:rounded="0"
       inkscape:randomized="0"
       d="m 58.731918,113.72295 -7.112676,0.46302 -3.650853,6.12175 -2.638304,-6.62147 -6.950305,-1.58044 5.482114,-4.55533 -0.644671,-7.09851 6.026437,3.80612 6.551876,-2.80668 -1.757572,6.90764 z"
       inkscape:transform-center-x="0.26272099"
       inkscape:transform-center-y="0.77187201"
       transform="translate(-32.545714,40.027487)" />
    <path
       sodipodi:type="star"
       style="fill:#ffffff;fill-opacity:1;stroke:#000000;stroke-width:0;stroke-dasharray:none"
       id="path23853"
       inkscape:flatsided="false"
       sodipodi:sides="5"
       sodipodi:cx="168.3399"
       sodipodi:cy="66.774826"
       sodipodi:r1="11.073593"
       sodipodi:r2="5.5367966"
       sodipodi:arg1="1.297137"
       sodipodi:arg2="1.9254555"
       inkscape:rounded="0"
       inkscape:randomized="0"
       d="m 171.33261,77.436353 -4.91547,-5.469313 -7.29215,0.948615 3.68266,-6.365007 -3.15559,-6.642108 7.19149,1.535523 5.34189,-5.053664 0.76192,7.314013 6.45706,3.518771 -6.72059,2.984786 z"
       inkscape:transform-center-x="-0.92479546"
       inkscape:transform-center-y="0.13854901"
       transform="translate(1.122266,36.660689)" />
    <path
       sodipodi:type="star"
       style="fill:#ffffff;fill-opacity:1;stroke:#000000;stroke-width:0;stroke-dasharray:none"
       id="path23855"
       inkscape:flatsided="false"
       sodipodi:sides="5"
       sodipodi:cx="13.467192"
       sodipodi:cy="-8.9781284"
       sodipodi:r1="2.5164242"
       sodipodi:r2="1.2582121"
       sodipodi:arg1="0.83798123"
       sodipodi:arg2="1.4662998"
       inkscape:rounded="0"
       inkscape:randomized="0"
       d="m 15.150591,-7.1076851 -1.55216,-0.6190945 -1.389938,0.9276576 0.109151,-1.6675021 -1.31177,-1.0352477 1.619618,-0.4114784 0.57922,-1.5674758 0.891829,1.413194 1.669747,0.06649 -1.068438,1.2848803 z"
       inkscape:transform-center-x="0.081110796"
       inkscape:transform-center-y="-0.16184545"
       transform="translate(4.1149753,41.523841)" />
    <path
       sodipodi:type="star"
       style="fill:#ffffff;fill-opacity:1;stroke:#000000;stroke-width:0;stroke-dasharray:none"
       id="path23857"
       inkscape:flatsided="false"
       sodipodi:sides="5"
       sodipodi:cx="30.30118"
       sodipodi:cy="2.2445321"
       sodipodi:r1="1.9257393"
       sodipodi:r2="0.96286964"
       sodipodi:arg1="1.0636978"
       sodipodi:arg2="1.6920164"
       inkscape:rounded="0"
       inkscape:randomized="0"
       d="m 31.236402,3.9279311 -1.051656,-0.727595 -1.195574,0.4538436 0.367004,-1.2250228 -0.801083,-0.9968137 1.278476,-0.029511 0.700478,-1.06990841 0.423137,1.20678421 1.234003,0.3355739 -1.016963,0.7753443 z"
       inkscape:transform-center-x="-0.071959362"
       inkscape:transform-center-y="-0.11410448"
       transform="translate(4.1149753,41.523841)" />
    <path
       sodipodi:type="star"
       style="fill:#ffffff;fill-opacity:1;stroke:#000000;stroke-width:0;stroke-dasharray:none"
       id="path23859"
       inkscape:flatsided="false"
       sodipodi:sides="5"
       sodipodi:cx="84.731087"
       sodipodi:cy="-22.819408"
       sodipodi:r1="1.8704433"
       sodipodi:r2="0.93522167"
       sodipodi:arg1="0.92729522"
       sodipodi:arg2="1.5556137"
       inkscape:rounded="0"
       inkscape:randomized="0"
       d="m 85.853353,-21.323054 -1.108068,-0.561241 -1.090517,0.594624 0.19136,-1.227268 -0.902509,-0.853394 1.226335,-0.197253 0.532736,-1.12205 0.566556,1.105359 1.231758,0.159929 -0.876184,0.880402 z"
       inkscape:transform-center-x="0.008776464"
       inkscape:transform-center-y="-0.17024482"
       transform="translate(4.1149753,41.523841)" />
    <path
       sodipodi:type="star"
       style="fill:#ffffff;fill-opacity:1;stroke:#000000;stroke-width:0;stroke-dasharray:none"
       id="path23861"
       inkscape:flatsided="false"
       sodipodi:sides="5"
       sodipodi:cx="135.23305"
       sodipodi:cy="91.838768"
       sodipodi:r1="2.1326337"
       sodipodi:r2="1.0663168"
       sodipodi:arg1="0.90975316"
       sodipodi:arg2="1.5380717"
       inkscape:rounded="0"
       inkscape:randomized="0"
       d="m 136.54236,93.522167 -1.27442,-0.617653 -1.2313,0.699681 0.1936,-1.402912 -1.04592,-0.95482 1.39407,-0.249395 0.58488,-1.289792 0.66798,1.248778 1.4074,0.157685 -0.98124,1.021182 z"
       inkscape:transform-center-x="0.0215644"
       inkscape:transform-center-y="-0.18303373"
       transform="translate(4.1149753,41.523841)" />
    <text
       xml:space="preserve"
       style="font-style:normal;font-variant:normal;font-weight:normal;font-stretch:normal;font-size:31.2686px;font-family:Magneto;-inkscape-font-specification:'Magneto, Normal';font-variant-ligatures:normal;font-variant-caps:normal;font-variant-numeric:normal;font-variant-east-asian:normal;letter-spacing:-0.888907px;fill:#5656ff;fill-opacity:1;stroke:none;stroke-width:26.0571;stroke-dasharray:none;stroke-opacity:1"
       x="45.372841"
       y="158.41222"
       id="text25692"
       transform="scale(0.93124636,1.0738297)"><tspan
         sodipodi:role="line"
         id="tspan25690"
         style="font-style:normal;font-variant:normal;font-weight:normal;font-stretch:normal;font-size:31.2686px;font-family:Moondance;-inkscape-font-specification:'Moondance, Normal';font-variant-ligatures:normal;font-variant-caps:normal;font-variant-numeric:normal;font-variant-east-asian:normal;fill:#5656ff;fill-opacity:1;stroke:none;stroke-width:26.0571"
         x="45.372841"
         y="158.41222">Nebula</tspan></text>
  </g>
</svg>
