<?xml version="1.0" encoding="UTF-8"?>
<!-- Created with Inkscape (http://www.inkscape.org/) -->
<svg width="800" height="800" version="1.1" viewBox="0 0 211.67 211.67" xmlns="http://www.w3.org/2000/svg">
 <g transform="matrix(.59594 0 0 .69051 46.96 -3.5899)">
  <g transform="rotate(-19.282,211.66,41.56)">
   <path d="m136.52 44.681a52.917 50.501 0 0 1-52.917 50.501 52.917 50.501 0 0 1-52.917-50.501 52.917 50.501 0 0 1 52.917-50.501 52.917 50.501 0 0 1 52.917 50.501z" fill="#00004d" stroke-width="0"/>
   <g fill="#5656ff" stroke-width=".19496">
    <path d="m135.53 54.415a52.917 50.501 0 0 1-0.0579 0.29456 52.917 50.501 0 0 1-0.32091 1.4092 52.917 50.501 0 0 1-0.36328 1.3999 52.917 50.501 0 0 1-0.40515 1.3896 52.917 50.501 0 0 1-0.44648 1.3777 52.917 50.501 0 0 1-0.48731 1.3653 52.917 50.501 0 0 1-0.52813 1.3513 52.917 50.501 0 0 1-0.56845 1.3364 52.917 50.501 0 0 1-0.60823 1.3203 52.917 50.501 0 0 1-0.64699 1.3033 52.917 50.501 0 0 1-0.10076 0.18914 92.198 22.852 0 0 0 42.024-19.164 92.198 22.852 0 0 0-39.038-18.67 52.917 50.501 0 0 1 0.92501 2.9652 52.917 50.501 0 0 1 0.8971 4.085 52.917 50.501 0 0 1 0.54105 4.1419 52.917 50.501 0 0 1 0.0667 1.5379 60.568 15.012 0 0 1 4.978 5.9397 60.568 15.012 0 0 1-5.8601 6.4275z"/>
    <path d="m32.286 56.967a52.917 50.501 0 0 0 0.02429 0.11059 52.917 50.501 0 0 0 1.248 4.0008 52.917 50.501 0 0 0 1.5901 3.8881 52.917 50.501 0 0 0 1.5813 3.0872 92.198 22.852 0 0 0 44.091 2.7864 92.198 22.852 0 0 0 50.174-3.6881 52.917 50.501 0 0 0 0.10076-0.18914 52.917 50.501 0 0 0 0.64699-1.3033 52.917 50.501 0 0 0 0.60823-1.3203 52.917 50.501 0 0 0 0.56845-1.3364 52.917 50.501 0 0 0 0.52813-1.3513 52.917 50.501 0 0 0 0.48731-1.3653 52.917 50.501 0 0 0 0.44648-1.3777 52.917 50.501 0 0 0 0.40515-1.3896 52.917 50.501 0 0 0 0.36328-1.3999 52.917 50.501 0 0 0 0.32091-1.4092 52.917 50.501 0 0 0 0.0579-0.29456 60.568 15.012 0 0 1-54.707 8.585 60.568 15.012 0 0 1-48.535-6.0332z"/>
    <path d="m33.528 28.381a92.198 22.852 0 0 0-44.905 19.607 92.198 22.852 0 0 0 48.107 20.066 52.917 50.501 0 0 1-1.5813-3.0872 52.917 50.501 0 0 1-1.5901-3.8881 52.917 50.501 0 0 1-1.248-4.0008 52.917 50.501 0 0 1-0.02429-0.11059 60.568 15.012 0 0 1-12.033-8.9793 60.568 15.012 0 0 1 10.755-8.5235 52.917 50.501 0 0 1 0.40463-3.0959 52.917 50.501 0 0 1 0.8971-4.085 52.917 50.501 0 0 1 1.2175-3.9026z"/>
   </g>
   <path d="m136.52 44.681a52.917 50.501 0 0 1-52.917 50.501 52.917 50.501 0 0 1-52.917-50.501 52.917 50.501 0 0 1 52.917-50.501 52.917 50.501 0 0 1 52.917 50.501z" fill="none" stroke-width=".21957"/>
  </g>
  <g fill="#fff" stroke-width="0">
   <path transform="translate(4.115,41.524)" d="m147.02-9.9134-1.7562-4.1197-4.3894-0.88884 3.3754-2.9433-0.51105-4.4492 3.8423 2.3007 4.0735-1.8609-1.0007 4.3652 3.0286 3.2991-4.4608 0.39716z"/>
   <path transform="translate(-32.546,40.027)" d="m58.732 113.72-7.1127 0.46302-3.6509 6.1218-2.6383-6.6215-6.9503-1.5804 5.4821-4.5553-0.64467-7.0985 6.0264 3.8061 6.5519-2.8067-1.7576 6.9076z"/>
   <path transform="translate(1.1223,36.661)" d="m171.33 77.436-4.9155-5.4693-7.2922 0.94862 3.6827-6.365-3.1556-6.6421 7.1915 1.5355 5.3419-5.0537 0.76192 7.314 6.4571 3.5188-6.7206 2.9848z"/>
   <path transform="translate(4.115,41.524)" d="m15.151-7.1077-1.5522-0.61909-1.3899 0.92766 0.10915-1.6675-1.3118-1.0352 1.6196-0.41148 0.57922-1.5675 0.89183 1.4132 1.6697 0.06649-1.0684 1.2849z"/>
   <path transform="translate(4.115,41.524)" d="m31.236 3.9279-1.0517-0.7276-1.1956 0.45384 0.367-1.225-0.80108-0.99681 1.2785-0.029511 0.70048-1.0699 0.42314 1.2068 1.234 0.33557-1.017 0.77534z"/>
   <path transform="translate(4.115,41.524)" d="m85.853-21.323-1.1081-0.56124-1.0905 0.59462 0.19136-1.2273-0.90251-0.85339 1.2263-0.19725 0.53274-1.122 0.56656 1.1054 1.2318 0.15993-0.87618 0.8804z"/>
   <path transform="translate(4.115,41.524)" d="m136.54 93.522-1.2744-0.61765-1.2313 0.69968 0.1936-1.4029-1.0459-0.95482 1.3941-0.2494 0.58488-1.2898 0.66798 1.2488 1.4074 0.15768-0.98124 1.0212z"/>
  </g>
  <text transform="scale(.93125 1.0738)" x="45.372841" y="158.41222" fill="#5656ff" font-family="Magneto" font-size="31.269px" letter-spacing="-.88891px" stroke-width="26.057" style="font-variant-caps:normal;font-variant-east-asian:normal;font-variant-ligatures:normal;font-variant-numeric:normal" xml:space="preserve"><tspan x="45.372841" y="158.41222" fill="#5656ff" font-family="Moondance" font-size="31.269px" stroke-width="26.057" style="font-variant-caps:normal;font-variant-east-asian:normal;font-variant-ligatures:normal;font-variant-numeric:normal">Nebula</tspan></text>
 </g>
</svg>
