<?xml version="1.0" encoding="UTF-8"?>
<!-- Created with Inkscape (http://www.inkscape.org/) -->
<svg width="500" height="500" version="1.1" viewBox="0 0 132.29 132.29" xmlns="http://www.w3.org/2000/svg">
 <g transform="matrix(1.5478 0 0 1.5478 -4.7674 -.51194)">
  <path d="m20.175 7.0615a10.483 12.323 0 0 0-10.483 12.323 10.483 12.323 0 0 0 10.483 12.323 10.483 12.323 0 0 0 10.483-12.323 10.483 12.323 0 0 0-10.483-12.323zm0 8.3075a3.7418 4.3986 0 0 1 3.7416 4.3984 3.7418 4.3986 0 0 1-3.7416 4.3984 3.7418 4.3986 0 0 1-3.7416-4.3984 3.7418 4.3986 0 0 1 3.7416-4.3984z" fill="#c87137" stroke="#100806" stroke-width=".22145"/>
  <g transform="matrix(.20423 0 0 .24007 -6.5747 -11.105)" stroke-linecap="round">
   <path d="m130.82 73.839c-0.40864-0.0031-0.81762-0.0018-1.2263 0.0047-14.781 0.17915-29.35 6.856-39.11 17.963-8.9738 10.083-14.261 23.988-13.435 37.158 3.57e-4 0.0115 0.03387 4.8847 0.18317 5.045 0.14931 0.16032 0.9423-2.9758 0.87796-2.9586-0.27938 0.0749-2.3313 3.0067 0.28267 4.5159 1.0513 0.60698 0.38129-2.6394 0.38168-2.6279-0.19557 5.9528-1.7766 12.928 6.0094 12.928 11.547 0 1.4565-21.755 12.998-21.755 11.519 0-0.40363 14.21 12.335 14.21 3.9343 0 4.9674-5.4905 4.1523-9.2196-0.0554-4.4837 1.7967-8.9754 5.0974-12.039 2.023-1.8859 4.4816-3.2388 7.1246-3.8897 1.2276-0.31069 2.4915-0.4725 3.7574-0.49403 1.6861-0.0271 3.2386 0.18297 4.8922 0.69092 4.9761 1.4982 9.1377 5.4966 10.692 10.474 0.55428 1.6682 0.81862 3.4607 0.79323 5.2576-8.8e-4 7.5812 0.64627 17.21 5.8887 17.21 11.502 0 3.1992-22.246 12.919-22.106 9.9839 0.14427 2.1908 22.411 12.819 22.411 5.1729 0 5.7241-9.6628 5.5909-17.515 0.31073-9.6132-1.9509-19.314-6.6564-27.719-6.1432-11.139-16.386-19.963-28.363-24.28-5.7569-2.1058-11.874-3.2191-18.004-3.2654z" color="#000000" stroke-width="2.7781"/>
   <path d="m130.83 72.449c-0.41861-0.0032-0.83736-8.28e-4 -1.2578 0.0059-15.187 0.18517-30.103 7.0204-40.133 18.434-9.212 10.354-14.63 24.564-13.777 38.162l-2e-3 -0.043c1.79e-4 6e-3 0.0078 1.1998 0.03516 2.4531 0.01369 0.62669 0.03317 1.2586 0.05859 1.7637 0.01271 0.25253 0.02515 0.47085 0.04492 0.66406 0.0099 0.0966 0.01952 0.18365 0.04102 0.29688 0.0084 0.044 0.02446 0.10449 0.04297 0.16992 0.0283 0.12014-0.03074 0.21655 0.01172 0.33789 0.21862 0.62475 0.69986 1.1845 1.2969 1.6602-0.11108 1.8926-0.15843 3.8009 0.23828 5.584 0.32157 1.4454 0.99318 2.8488 2.2402 3.8359s2.9594 1.4824 5.1133 1.4824c3.3229 0 5.5584-1.8664 6.5605-4.248 1.0021-2.3817 1.1445-5.2063 1.3262-7.9258 0.18172-2.7194 0.4016-5.3338 1.1152-7.0312s1.5471-2.5488 3.9961-2.5488c2.5942 0 3.3066 0.60263 3.7676 1.4785 0.461 0.87589 0.52865 2.4617 0.55468 4.2578 0.026 1.7961 0.0229 3.8354 1.1621 5.6133s3.4087 2.8594 6.8516 2.8594c1.3067 0 2.4883-0.49539 3.3516-1.2715 0.86329-0.77609 1.4339-1.7877 1.8144-2.8672 0.76105-2.159 0.8059-4.6425 0.3418-6.7656l0.0332 0.2793c-0.0505-4.0898 1.658-8.2246 4.6523-11.004l2e-3 -2e-3c1.8548-1.7291 4.1064-2.9647 6.5098-3.5566l6e-3 -2e-3h4e-3c1.119-0.28319 2.2762-0.43334 3.4394-0.45312 1.5571-0.025 2.9378 0.163 4.4609 0.63086h4e-3l4e-3 2e-3c4.5275 1.3632 8.3586 5.0523 9.7656 9.5586l8e-3 0.0234c0.50206 1.511 0.74594 3.1532 0.72265 4.8008v0.02c-4.4e-4 3.8302 0.14597 8.1962 1.0176 11.775 0.43581 1.7896 1.0436 3.3994 2.0332 4.666s2.4907 2.1562 4.2266 2.1562c3.3234 0 5.6168-1.8626 6.7598-4.2656s1.4597-5.2938 1.75-8.084c0.29035-2.7902 0.55214-5.4937 1.2109-7.2656 0.3294-0.88596 0.73501-1.5092 1.2051-1.8945 0.47007-0.38538 1.0212-0.60946 1.9727-0.59571 0.9886 0.0143 1.6014 0.26582 2.123 0.69141 0.52163 0.42559 0.96592 1.0866 1.3281 1.9961 0.72442 1.8189 1.0425 4.5389 1.3574 7.3379 0.31489 2.799 0.62414 5.6811 1.6777 8.0742 1.0536 2.3931 3.2114 4.3106 6.3535 4.3106 1.7257 0 3.2172-0.90433 4.1836-2.1836 0.96642-1.2793 1.5478-2.9004 1.957-4.7109 0.81381-3.601 0.90311-8.0116 0.8379-11.963 0.31864-9.858-1.9956-19.801-6.8281-28.436v-2e-3c-6.3077-11.436-16.797-20.474-29.102-24.91-5.4725-2.0017-11.268-3.0299-17.092-3.2227v-0.11719zm-0.0215 2.7793c5.9685 0.04509 11.93 1.1287 17.537 3.1797l4e-3 2e-3 2e-3 2e-3c11.647 4.1976 21.641 12.804 27.619 23.643l4e-3 8e-3c4.5756 8.1723 6.7832 17.631 6.4805 26.996l-2e-3 0.0332v0.0351c0.0659 3.8839-0.0543 8.1978-0.77148 11.371-0.35858 1.5866-0.87525 2.8725-1.4629 3.6504-0.58765 0.77788-1.106 1.0801-1.9668 1.0801-2.1721 0-3.0241-0.86602-3.8106-2.6524-0.78644-1.7863-1.1476-4.48-1.4609-7.2656-0.31338-2.7856-0.58263-5.6581-1.5371-8.0547-0.47725-1.1983-1.1457-2.3014-2.1504-3.1211-1.0047-0.81972-2.3325-1.2946-3.8398-1.3164-1.4784-0.0214-2.7943 0.42026-3.7754 1.2246-0.98113 0.80434-1.6101 1.8943-2.0488 3.0742-0.87737 2.3598-1.0826 5.1914-1.3691 7.9453s-0.65715 5.4159-1.4961 7.1797c-0.83894 1.7638-1.8222 2.6816-4.25 2.6816-0.88538 0-1.431-0.31414-2.0371-1.0898s-1.1423-2.0461-1.5234-3.6113c-0.76105-3.1252-0.93929-7.3533-0.93945-11.1 0.0274-1.9421-0.2574-3.883-0.86133-5.7051-1.7045-5.4414-6.1906-9.7426-11.609-11.375-7.4e-4 -2.3e-4 -1e-3 -2e-3 -2e-3 -2e-3 -1.7813-0.54629-3.502-0.77913-5.3144-0.75h-2e-3c-1.3658 0.0232-2.7326 0.19826-4.0664 0.53515-2.8819 0.70976-5.5454 2.177-7.7363 4.2188-3.6069 3.3479-5.6013 8.1966-5.541 13.074v0.14258l0.0312 0.13672c0.35106 1.606 0.28723 3.7315-0.24805 5.25-0.26764 0.75926-0.64126 1.3547-1.0527 1.7246-0.41148 0.36991-0.83365 0.56054-1.4942 0.56054-2.9264 0-3.9438-0.69366-4.5117-1.5801-0.56796-0.88642-0.69916-2.3999-0.72461-4.1562-0.0255-1.7564 0.0663-3.7233-0.875-5.5117-0.94132-1.7884-3.0592-2.9629-6.2246-2.9629-3.3218 0-5.5554 1.8684-6.5566 4.25-1.0013 2.3816-1.1445 5.2065-1.3262 7.9258-0.18171 2.7193-0.40105 5.3339-1.1152 7.0312-0.71418 1.6974-1.5494 2.5488-4 2.5488-1.7391 0-2.7485-0.37603-3.3887-0.88282-0.6402-0.50678-1.02-1.2191-1.252-2.2617-0.30508-1.3712-0.2394-3.255-0.13281-5.2344 0.03403-0.0661 0.15922-0.12785 0.18164-0.18555 0.24569-0.63221 0.19579-1.0585 0.17383-1.5059s-0.07968-0.87137-0.13086-1.1953c-0.02559-0.16197-0.04995-0.29643-0.06836-0.39453-0.0092-0.0491-0.01745-0.0894-0.02344-0.11914-3e-3 -0.0149-0.0051-0.0265-0.0078-0.0391-0.0013-6e-3 -9.69e-4 -0.0124-0.0039-0.0254-0.0015-7e-3 -0.0026-0.0109-0.0098-0.0391-0.0036-0.0141-0.03514-0.11322-0.03516-0.11328-6e-6 -2e-5 -0.5057 0.0951-0.91797 0.17188 0.07548-0.28615 0.15178-0.58075 0.20508-0.8086 0.03644-0.15578 0.06506-0.28727 0.08789-0.4082 0.01141-0.0605 0.02282-0.11019 0.0332-0.20898 0.0052-0.0494 0.01812-0.0936 0.0059-0.26758-0.0031-0.0435-0.0083-0.0968-0.02344-0.17383-0.01514-0.077-0.10908-0.33141-0.10938-0.33203-1.48e-4 -3.1e-4 -0.16975-0.26932-0.16992-0.26953-1.73e-4 -2.2e-4 -0.35332-0.31433-0.35352-0.31446-1.41e-4 -8e-5 -0.231-0.0808-0.39453-0.13867-0.0023-0.22331-0.01166-0.80866-0.01172-0.81055v-0.0215l-2e-3 -0.0234c-0.79905-12.74 4.3537-26.335 13.086-36.146l2e-3 -0.0039 0.0039-0.0039c9.49-10.799 23.71-17.316 38.084-17.49h4e-3c0.39687-0.0063 0.7947-0.0069 1.1934-0.0039z" color="#000000" fill="#100806"/>
  </g>
  <path d="m20.142 6.6216c-0.08346-7.442e-4 -0.16698-4.321e-4 -0.25044 0.00113-3.0187 0.043009-5.994 1.6459-7.9873 4.3125-1.8327 2.4207-2.9125 5.7589-2.7438 8.9207 7.35e-5 0.0028 0.00692 1.1727 0.03741 1.2112 0.030491 0.03849 0.19244-0.71444 0.1793-0.71028-0.057056 0.01798-0.47611 0.72183 0.057728 1.0842 0.2147 0.14572 0.077869-0.63365 0.077949-0.63089-0.03994 1.4291-0.36283 3.1037 1.2273 3.1037 2.3582 0 0.29746-5.2228 2.6545-5.2228 2.3525 0-0.08243 3.4115 2.5191 3.4115 0.80348 0 1.0145-1.3181 0.84801-2.2134-0.01131-1.0764 0.36693-2.1548 1.041-2.8903 0.41315-0.45276 0.91526-0.77753 1.455-0.93382 0.25071-0.07459 0.50883-0.11344 0.76736-0.1186 0.34434-0.0065 0.6614 0.04393 0.99911 0.16587 1.0162 0.35968 1.8662 1.3196 2.1836 2.5145 0.1132 0.40049 0.16718 0.83082 0.162 1.2622-1.8e-4 1.8201 0.09146 4.1634 1.1621 4.1634 2.349 0 0.69388-5.3726 2.6788-5.3388 2.039 0.03464 0.44742 5.3803 2.618 5.3803 1.0564 0 1.169-2.3198 1.1418-4.2049 0.06346-2.3079-0.39842-4.6368-1.3594-6.6546-1.2546-2.6742-3.3464-4.7926-5.7924-5.829-1.1757-0.50555-2.425-0.77282-3.6769-0.78394z" fill="#520" stroke-width=".22143"/>
  <g transform="matrix(.20423 0 0 .24007 -.55824 -3.2977)" fill="#f00">
   <rect transform="rotate(21.05)" x="83.432" y="43.583" width="11.874" height="3.507" rx="3.3737" ry="1.5659"/>
   <rect transform="rotate(-50.215)" x="6.458" y="100.06" width="11.874" height="3.507" rx="3.3737" ry="1.5659"/>
   <rect transform="rotate(18.897)" x="158.25" y="29.642" width="11.874" height="3.507" rx="3.3737" ry="1.5659"/>
  </g>
  <rect transform="matrix(-.60848 .79357 -.68637 -.72726 0 0)" x="-8.2881" y="-28.967" width="2.6682" height=".7751" rx=".75811" ry=".34609" fill="#f0f" stroke-width=".22286"/>
  <rect transform="matrix(.9277 .37331 -.27959 .96012 0 0)" x="25.936" y="-.77008" width="2.4731" height=".82965" rx=".70266" ry=".37044" fill="#0f0" stroke-width=".22197"/>
  <rect transform="matrix(-.66257 .749 -.63318 -.77401 0 0)" x="2.3143" y="-20.949" width="2.6381" height=".78406" rx=".74954" ry=".35009" fill="#f0f" stroke-width=".22287"/>
  <ellipse cx="22.009" cy="11.508" rx=".54034" ry=".63519" fill="#f0f" stroke-width=".22143"/>
  <ellipse cx="16.66" cy="15.319" rx=".54034" ry=".63519" fill="#0f0" stroke-width=".22143"/>
  <g transform="matrix(.20423 0 0 .24007 -.55824 -3.2977)" fill="#0ff">
   <circle cx="140.14" cy="68.285" r="2.6458"/>
   <circle cx="124.79" cy="97.125" r="2.6458"/>
   <circle cx="70.023" cy="59.818" r="2.6458"/>
  </g>
  <ellipse cx="10.77" cy="22.052" rx=".54034" ry=".63519" fill="#0f0" stroke-width=".22143"/>
  <ellipse cx="9.5005" cy="21.13" rx=".33097" ry=".33349" fill="#520" stroke-width=".22143"/>
  <rect transform="matrix(.5783 .81582 -.71437 .69977 0 0)" x="11.046" y="-4.2172" width="2.6844" height=".77023" rx=".7627" ry=".34391" fill="#f00" stroke-width=".22282"/>
  <rect transform="matrix(.40103 .91607 -.85562 .5176 0 0)" x="38.432" y="-18.872" width="2.7669" height=".7443" rx=".78616" ry=".33234" fill="#f0f" stroke-width=".22239"/>
  <ellipse cx="9.7063" cy="10.872" rx=".54034" ry=".63519" fill="#0f0" stroke-width=".22143"/>
  <ellipse cx="33.946" cy="21.54" rx=".54034" ry=".63519" fill="#0ff" stroke-width=".22143"/>
  <rect transform="matrix(.52467 -.85131 .76131 .64838 0 0)" x="-6.3587" y="41.628" width="2.7117" height=".76184" rx=".77045" ry=".34017" fill="#0f0" stroke-width=".22273"/>
  <rect transform="matrix(.47414 -.88045 .80224 .59701 0 0)" x="-7.7369" y="11.587" width="2.7356" height=".75433" rx=".77726" ry=".33681" fill="#00f" stroke-width=".22261"/>
  <text transform="scale(1.096 .9124)" x="35.743347" y="11.644459" fill="#552200" font-family="'Sugar Rush Solid'" font-size="18.368px" letter-spacing="-.015875px" stroke-width=".48258" xml:space="preserve"><tspan x="35.743347" y="11.644459" dx="-5" dy="6" style="font-variant-caps:normal;font-variant-east-asian:normal;font-variant-ligatures:normal;font-variant-numeric:normal">Sugar</tspan><tspan x="35.743347" y="34.634098" style="font-variant-caps:normal;font-variant-east-asian:normal;font-variant-ligatures:normal;font-variant-numeric:normal">Rush</tspan></text>
  <rect transform="matrix(.40103 .91607 -.85562 .5176 0 0)" x="52.06" y="-72.244" width="2.7669" height=".7443" rx=".78616" ry=".33234" fill="#f0f" stroke-width=".22239"/>
  <ellipse cx="85.078" cy="6.399" rx=".54034" ry=".63519" fill="#0ff" stroke-width=".22143"/>
  <rect transform="matrix(.52467 -.85131 .76131 .64838 0 0)" x="38.851" y="77.634" width="2.7117" height=".76184" rx=".77045" ry=".34017" fill="#00f" stroke-width=".22273"/>
  <ellipse cx="86.822" cy="19.083" rx=".54034" ry=".63519" fill="#0ff" stroke-width=".22143"/>
  <rect transform="matrix(.5783 .81582 -.71437 .69977 0 0)" x="75.331" y="-55.713" width="2.6844" height=".77023" rx=".7627" ry=".34391" fill="#f00" stroke-width=".22282"/>
  <ellipse cx="83.669" cy="27.282" rx=".54034" ry=".63519" fill="#0f0" stroke-width=".22143"/>
  <rect transform="matrix(.47414 -.88045 .80224 .59701 0 0)" x="23.587" y="85.269" width="2.7356" height=".75433" rx=".77726" ry=".33681" fill="#f0f" stroke-width=".22261"/>
 </g>
</svg>
