<?xml version="1.0" encoding="UTF-8" standalone="no"?>
<!-- Created with Inkscape (http://www.inkscape.org/) -->

<svg
   width="500"
   height="250"
   version="1.1"
   viewBox="0 0 132.29 66.145"
   id="svg846"
   sodipodi:docname="donut.svg"
   inkscape:version="1.2.1 (9c6d41e410, 2022-07-14)"
   xmlns:inkscape="http://www.inkscape.org/namespaces/inkscape"
   xmlns:sodipodi="http://sodipodi.sourceforge.net/DTD/sodipodi-0.dtd"
   xmlns="http://www.w3.org/2000/svg"
   xmlns:svg="http://www.w3.org/2000/svg">
  <defs
     id="defs850" />
  <sodipodi:namedview
     id="namedview848"
     pagecolor="#505050"
     bordercolor="#ffffff"
     borderopacity="1"
     inkscape:showpageshadow="0"
     inkscape:pageopacity="0"
     inkscape:pagecheckerboard="1"
     inkscape:deskcolor="#505050"
     showgrid="false"
     inkscape:zoom="0.472"
     inkscape:cx="226.69492"
     inkscape:cy="251.05932"
     inkscape:window-width="1920"
     inkscape:window-height="1112"
     inkscape:window-x="-8"
     inkscape:window-y="-8"
     inkscape:window-maximized="1"
     inkscape:current-layer="g844" />
  <g
     transform="matrix(1.5478,0,0,1.5478,-4.7674,-0.51194)"
     id="g844">
    <path
       d="M 20.175,7.0615 A 10.483,12.323 0 0 0 9.692,19.3845 10.483,12.323 0 0 0 20.175,31.7075 10.483,12.323 0 0 0 30.658,19.3845 10.483,12.323 0 0 0 20.175,7.0615 Z m 0,8.3075 a 3.7418,4.3986 0 0 1 3.7416,4.3984 3.7418,4.3986 0 0 1 -3.7416,4.3984 3.7418,4.3986 0 0 1 -3.7416,-4.3984 3.7418,4.3986 0 0 1 3.7416,-4.3984 z"
       fill="#c87137"
       stroke="#100806"
       stroke-width="0.22145"
       id="path772" />
    <g
       transform="matrix(0.20423,0,0,0.24007,-6.5747,-11.105)"
       stroke-linecap="round"
       id="g778">
      <path
         d="m 130.82,73.839 c -0.40864,-0.0031 -0.81762,-0.0018 -1.2263,0.0047 -14.781,0.17915 -29.35,6.856 -39.11,17.963 -8.9738,10.083 -14.261,23.988 -13.435,37.158 3.57e-4,0.0115 0.03387,4.8847 0.18317,5.045 0.14931,0.16032 0.9423,-2.9758 0.87796,-2.9586 -0.27938,0.0749 -2.3313,3.0067 0.28267,4.5159 1.0513,0.60698 0.38129,-2.6394 0.38168,-2.6279 -0.19557,5.9528 -1.7766,12.928 6.0094,12.928 11.547,0 1.4565,-21.755 12.998,-21.755 11.519,0 -0.40363,14.21 12.335,14.21 3.9343,0 4.9674,-5.4905 4.1523,-9.2196 -0.0554,-4.4837 1.7967,-8.9754 5.0974,-12.039 2.023,-1.8859 4.4816,-3.2388 7.1246,-3.8897 1.2276,-0.31069 2.4915,-0.4725 3.7574,-0.49403 1.6861,-0.0271 3.2386,0.18297 4.8922,0.69092 4.9761,1.4982 9.1377,5.4966 10.692,10.474 0.55428,1.6682 0.81862,3.4607 0.79323,5.2576 -8.8e-4,7.5812 0.64627,17.21 5.8887,17.21 11.502,0 3.1992,-22.246 12.919,-22.106 9.9839,0.14427 2.1908,22.411 12.819,22.411 5.1729,0 5.7241,-9.6628 5.5909,-17.515 0.31073,-9.6132 -1.9509,-19.314 -6.6564,-27.719 -6.1432,-11.139 -16.386,-19.963 -28.363,-24.28 -5.7569,-2.1058 -11.874,-3.2191 -18.004,-3.2654 z"
         color="#000000"
         stroke-width="2.7781"
         id="path774" />
      <path
         d="m 130.83,72.449 c -0.41861,-0.0032 -0.83736,-8.28e-4 -1.2578,0.0059 -15.187,0.18517 -30.103,7.0204 -40.133,18.434 -9.212,10.354 -14.63,24.564 -13.777,38.162 l -0.002,-0.043 c 1.79e-4,0.006 0.0078,1.1998 0.03516,2.4531 0.01369,0.62669 0.03317,1.2586 0.05859,1.7637 0.01271,0.25253 0.02515,0.47085 0.04492,0.66406 0.0099,0.0966 0.01952,0.18365 0.04102,0.29688 0.0084,0.044 0.02446,0.10449 0.04297,0.16992 0.0283,0.12014 -0.03074,0.21655 0.01172,0.33789 0.21862,0.62475 0.69986,1.1845 1.2969,1.6602 -0.11108,1.8926 -0.15843,3.8009 0.23828,5.584 0.32157,1.4454 0.99318,2.8488 2.2402,3.8359 1.24702,0.9871 2.9594,1.4824 5.1133,1.4824 3.3229,0 5.5584,-1.8664 6.5605,-4.248 1.0021,-2.3817 1.1445,-5.2063 1.3262,-7.9258 0.18172,-2.7194 0.4016,-5.3338 1.1152,-7.0312 0.7136,-1.6974 1.5471,-2.5488 3.9961,-2.5488 2.5942,0 3.3066,0.60263 3.7676,1.4785 0.461,0.87589 0.52865,2.4617 0.55468,4.2578 0.026,1.7961 0.0229,3.8354 1.1621,5.6133 1.1392,1.7779 3.4087,2.8594 6.8516,2.8594 1.3067,0 2.4883,-0.49539 3.3516,-1.2715 0.86329,-0.77609 1.4339,-1.7877 1.8144,-2.8672 0.76105,-2.159 0.8059,-4.6425 0.3418,-6.7656 l 0.0332,0.2793 c -0.0505,-4.0898 1.658,-8.2246 4.6523,-11.004 l 0.002,-0.002 c 1.8548,-1.7291 4.1064,-2.9647 6.5098,-3.5566 l 0.006,-0.002 h 0.004 c 1.119,-0.28319 2.2762,-0.43334 3.4394,-0.45312 1.5571,-0.025 2.9378,0.163 4.4609,0.63086 h 0.004 l 0.004,0.002 c 4.5275,1.3632 8.3586,5.0523 9.7656,9.5586 l 0.008,0.0234 c 0.50206,1.511 0.74594,3.1532 0.72265,4.8008 v 0.02 c -4.4e-4,3.8302 0.14597,8.1962 1.0176,11.775 0.43581,1.7896 1.0436,3.3994 2.0332,4.666 0.9896,1.2666 2.4907,2.1562 4.2266,2.1562 3.3234,0 5.6168,-1.8626 6.7598,-4.2656 1.143,-2.403 1.4597,-5.2938 1.75,-8.084 0.29035,-2.7902 0.55214,-5.4937 1.2109,-7.2656 0.3294,-0.88596 0.73501,-1.5092 1.2051,-1.8945 0.47007,-0.38538 1.0212,-0.60946 1.9727,-0.59571 0.9886,0.0143 1.6014,0.26582 2.123,0.69141 0.52163,0.42559 0.96592,1.0866 1.3281,1.9961 0.72442,1.8189 1.0425,4.5389 1.3574,7.3379 0.31489,2.799 0.62414,5.6811 1.6777,8.0742 1.0536,2.3931 3.2114,4.3106 6.3535,4.3106 1.7257,0 3.2172,-0.90433 4.1836,-2.1836 0.96642,-1.2793 1.5478,-2.9004 1.957,-4.7109 0.81381,-3.601 0.90311,-8.0116 0.8379,-11.963 0.31864,-9.858 -1.9956,-19.801 -6.8281,-28.436 v -0.002 c -6.3077,-11.436 -16.797,-20.474 -29.102,-24.91 -5.4725,-2.0017 -11.268,-3.0299 -17.092,-3.2227 V 72.4607 Z m -0.0215,2.7793 c 5.9685,0.04509 11.93,1.1287 17.537,3.1797 l 0.004,0.002 0.002,0.002 c 11.647,4.1976 21.641,12.804 27.619,23.643 l 0.004,0.008 c 4.5756,8.1723 6.7832,17.631 6.4805,26.996 l -0.002,0.0332 v 0.0351 c 0.0659,3.8839 -0.0543,8.1978 -0.77148,11.371 -0.35858,1.5866 -0.87525,2.8725 -1.4629,3.6504 -0.58765,0.77788 -1.106,1.0801 -1.9668,1.0801 -2.1721,0 -3.0241,-0.86602 -3.8106,-2.6524 -0.78644,-1.7863 -1.1476,-4.48 -1.4609,-7.2656 -0.31338,-2.7856 -0.58263,-5.6581 -1.5371,-8.0547 -0.47725,-1.1983 -1.1457,-2.3014 -2.1504,-3.1211 -1.0047,-0.81972 -2.3325,-1.2946 -3.8398,-1.3164 -1.4784,-0.0214 -2.7943,0.42026 -3.7754,1.2246 -0.98113,0.80434 -1.6101,1.8943 -2.0488,3.0742 -0.87737,2.3598 -1.0826,5.1914 -1.3691,7.9453 -0.2865,2.7539 -0.65715,5.4159 -1.4961,7.1797 -0.83894,1.7638 -1.8222,2.6816 -4.25,2.6816 -0.88538,0 -1.431,-0.31414 -2.0371,-1.0898 -0.6061,-0.77566 -1.1423,-2.0461 -1.5234,-3.6113 -0.76105,-3.1252 -0.93929,-7.3533 -0.93945,-11.1 0.0274,-1.9421 -0.2574,-3.883 -0.86133,-5.7051 -1.7045,-5.4414 -6.1906,-9.7426 -11.609,-11.375 -7.4e-4,-2.3e-4 -0.001,-0.002 -0.002,-0.002 -1.7813,-0.54629 -3.502,-0.77913 -5.3144,-0.75 h -0.002 c -1.3658,0.0232 -2.7326,0.19826 -4.0664,0.53515 -2.8819,0.70976 -5.5454,2.177 -7.7363,4.2188 -3.6069,3.3479 -5.6013,8.1966 -5.541,13.074 v 0.14258 l 0.0312,0.13672 c 0.35106,1.606 0.28723,3.7315 -0.24805,5.25 -0.26764,0.75926 -0.64126,1.3547 -1.0527,1.7246 -0.41148,0.36991 -0.83365,0.56054 -1.4942,0.56054 -2.9264,0 -3.9438,-0.69366 -4.5117,-1.5801 -0.56796,-0.88642 -0.69916,-2.3999 -0.72461,-4.1562 -0.0255,-1.7564 0.0663,-3.7233 -0.875,-5.5117 -0.94132,-1.7884 -3.0592,-2.9629 -6.2246,-2.9629 -3.3218,0 -5.5554,1.8684 -6.5566,4.25 -1.0013,2.3816 -1.1445,5.2065 -1.3262,7.9258 -0.18171,2.7193 -0.40105,5.3339 -1.1152,7.0312 -0.71418,1.6974 -1.5494,2.5488 -4,2.5488 -1.7391,0 -2.7485,-0.37603 -3.3887,-0.88282 -0.6402,-0.50678 -1.02,-1.2191 -1.252,-2.2617 -0.30508,-1.3712 -0.2394,-3.255 -0.13281,-5.2344 0.03403,-0.0661 0.15922,-0.12785 0.18164,-0.18555 0.24569,-0.63221 0.19579,-1.0585 0.17383,-1.5059 -0.02196,-0.4474 -0.07968,-0.87137 -0.13086,-1.1953 -0.02559,-0.16197 -0.04995,-0.29643 -0.06836,-0.39453 -0.0092,-0.0491 -0.01745,-0.0894 -0.02344,-0.11914 -0.003,-0.0149 -0.0051,-0.0265 -0.0078,-0.0391 -0.0013,-0.006 -9.69e-4,-0.0124 -0.0039,-0.0254 -0.0015,-0.007 -0.0026,-0.0109 -0.0098,-0.0391 -0.0036,-0.0141 -0.03514,-0.11322 -0.03516,-0.11328 -6e-6,-2e-5 -0.5057,0.0951 -0.91797,0.17188 0.07548,-0.28615 0.15178,-0.58075 0.20508,-0.8086 0.03644,-0.15578 0.06506,-0.28727 0.08789,-0.4082 0.01141,-0.0605 0.02282,-0.11019 0.0332,-0.20898 0.0052,-0.0494 0.01812,-0.0936 0.0059,-0.26758 -0.0031,-0.0435 -0.0083,-0.0968 -0.02344,-0.17383 -0.01514,-0.077 -0.10908,-0.33141 -0.10938,-0.33203 -1.48e-4,-3.1e-4 -0.16975,-0.26932 -0.16992,-0.26953 -1.73e-4,-2.2e-4 -0.35332,-0.31433 -0.35352,-0.31446 -1.41e-4,-8e-5 -0.231,-0.0808 -0.39453,-0.13867 -0.0023,-0.22331 -0.01166,-0.80866 -0.01172,-0.81055 v -0.0215 l -0.002,-0.0234 c -0.79905,-12.74 4.3537,-26.335 13.086,-36.146 l 0.002,-0.0039 0.0039,-0.0039 c 9.49,-10.799 23.71,-17.316 38.084,-17.49 h 0.004 c 0.39687,-0.0063 0.7947,-0.0069 1.1934,-0.0039 z"
         color="#000000"
         fill="#100806"
         id="path776" />
    </g>
    <path
       d="m 20.142,6.6216 c -0.08346,-7.442e-4 -0.16698,-4.321e-4 -0.25044,0.00113 -3.0187,0.043009 -5.994,1.6459 -7.9873,4.3125 -1.8327,2.4207 -2.9125,5.7589 -2.7438,8.9207 7.35e-5,0.0028 0.00692,1.1727 0.03741,1.2112 0.030491,0.03849 0.19244,-0.71444 0.1793,-0.71028 -0.057056,0.01798 -0.47611,0.72183 0.057728,1.0842 0.2147,0.14572 0.077869,-0.63365 0.077949,-0.63089 -0.03994,1.4291 -0.36283,3.1037 1.2273,3.1037 2.3582,0 0.29746,-5.2228 2.6545,-5.2228 2.3525,0 -0.08243,3.4115 2.5191,3.4115 0.80348,0 1.0145,-1.3181 0.84801,-2.2134 -0.01131,-1.0764 0.36693,-2.1548 1.041,-2.8903 0.41315,-0.45276 0.91526,-0.77753 1.455,-0.93382 0.25071,-0.07459 0.50883,-0.11344 0.76736,-0.1186 0.34434,-0.0065 0.6614,0.04393 0.99911,0.16587 1.0162,0.35968 1.8662,1.3196 2.1836,2.5145 0.1132,0.40049 0.16718,0.83082 0.162,1.2622 -1.8e-4,1.8201 0.09146,4.1634 1.1621,4.1634 2.349,0 0.69388,-5.3726 2.6788,-5.3388 2.039,0.03464 0.44742,5.3803 2.618,5.3803 1.0564,0 1.169,-2.3198 1.1418,-4.2049 0.06346,-2.3079 -0.39842,-4.6368 -1.3594,-6.6546 -1.2546,-2.6742 -3.3464,-4.7926 -5.7924,-5.829 -1.1757,-0.50555 -2.425,-0.77282 -3.6769,-0.78394 z"
       fill="#552200"
       stroke-width="0.22143"
       id="path780" />
    <g
       transform="matrix(0.20423,0,0,0.24007,-0.55824,-3.2977)"
       fill="#ff0000"
       id="g788">
      <rect
         transform="rotate(21.05)"
         x="83.431999"
         y="43.583"
         width="11.874"
         height="3.507"
         rx="3.3736999"
         ry="1.5659"
         id="rect782" />
      <rect
         transform="rotate(-50.215)"
         x="6.4580002"
         y="100.06"
         width="11.874"
         height="3.507"
         rx="3.3736999"
         ry="1.5659"
         id="rect784" />
      <rect
         transform="rotate(18.897)"
         x="158.25"
         y="29.642"
         width="11.874"
         height="3.507"
         rx="3.3736999"
         ry="1.5659"
         id="rect786" />
    </g>
    <rect
       transform="matrix(-0.60848,0.79357,-0.68637,-0.72726,0,0)"
       x="-8.2881002"
       y="-28.966999"
       width="2.6682"
       height="0.77509999"
       rx="0.75810999"
       ry="0.34608999"
       fill="#ff00ff"
       stroke-width="0.22286"
       id="rect790" />
    <rect
       transform="matrix(0.9277,0.37331,-0.27959,0.96012,0,0)"
       x="25.936001"
       y="-0.77007997"
       width="2.4730999"
       height="0.82964998"
       rx="0.70266002"
       ry="0.37044001"
       fill="#00ff00"
       stroke-width="0.22197"
       id="rect792" />
    <rect
       transform="matrix(-0.66257,0.749,-0.63318,-0.77401,0,0)"
       x="2.3143001"
       y="-20.948999"
       width="2.6380999"
       height="0.78406"
       rx="0.74953997"
       ry="0.35009"
       fill="#ff00ff"
       stroke-width="0.22287"
       id="rect794" />
    <ellipse
       cx="22.009001"
       cy="11.508"
       rx="0.54034001"
       ry="0.63519001"
       fill="#ff00ff"
       stroke-width="0.22143"
       id="ellipse796" />
    <ellipse
       cx="16.66"
       cy="15.319"
       rx="0.54034001"
       ry="0.63519001"
       fill="#00ff00"
       stroke-width="0.22143"
       id="ellipse798" />
    <g
       transform="matrix(0.20423,0,0,0.24007,-0.55824,-3.2977)"
       fill="#00ffff"
       id="g806">
      <circle
         cx="140.14"
         cy="68.285004"
         r="2.6458001"
         id="circle800" />
      <circle
         cx="124.79"
         cy="97.125"
         r="2.6458001"
         id="circle802" />
      <circle
         cx="70.023003"
         cy="59.818001"
         r="2.6458001"
         id="circle804" />
    </g>
    <ellipse
       cx="10.77"
       cy="22.052"
       rx="0.54034001"
       ry="0.63519001"
       fill="#00ff00"
       stroke-width="0.22143"
       id="ellipse808" />
    <ellipse
       cx="9.5004997"
       cy="21.129999"
       rx="0.33096999"
       ry="0.33349001"
       fill="#552200"
       stroke-width="0.22143"
       id="ellipse810" />
    <rect
       transform="matrix(0.5783,0.81582,-0.71437,0.69977,0,0)"
       x="11.046"
       y="-4.2171998"
       width="2.6844001"
       height="0.77023"
       rx="0.76270002"
       ry="0.34391001"
       fill="#ff0000"
       stroke-width="0.22282"
       id="rect812" />
    <rect
       transform="matrix(0.40103,0.91607,-0.85562,0.5176,0,0)"
       x="38.431999"
       y="-18.872"
       width="2.7669001"
       height="0.74430001"
       rx="0.78615999"
       ry="0.33234"
       fill="#ff00ff"
       stroke-width="0.22239"
       id="rect814" />
    <ellipse
       cx="9.7062998"
       cy="10.872"
       rx="0.54034001"
       ry="0.63519001"
       fill="#00ff00"
       stroke-width="0.22143"
       id="ellipse816" />
    <ellipse
       cx="33.945999"
       cy="21.540001"
       rx="0.54034001"
       ry="0.63519001"
       fill="#00ffff"
       stroke-width="0.22143"
       id="ellipse818" />
    <rect
       transform="matrix(0.52467,-0.85131,0.76131,0.64838,0,0)"
       x="-6.3586998"
       y="41.627998"
       width="2.7117"
       height="0.76183999"
       rx="0.77045"
       ry="0.34017"
       fill="#00ff00"
       stroke-width="0.22273"
       id="rect820" />
    <rect
       transform="matrix(0.47414,-0.88045,0.80224,0.59701,0,0)"
       x="-7.7368999"
       y="11.587"
       width="2.7356"
       height="0.75432998"
       rx="0.77726001"
       ry="0.33680999"
       fill="#0000ff"
       stroke-width="0.22261"
       id="rect822" />
    <text
       transform="scale(1.096,0.9124)"
       x="35.743347"
       y="11.644459"
       fill="#552200"
       font-family="'Sugar Rush Solid'"
       font-size="18.368px"
       letter-spacing="-0.015875px"
       stroke-width="0.48258"
       xml:space="preserve"
       id="text828"
       style="fill:#552200;fill-opacity:1"><tspan
         x="35.743347"
         y="11.644459"
         dx="-5"
         dy="6"
         style="font-variant-ligatures:normal;font-variant-caps:normal;font-variant-numeric:normal;font-variant-east-asian:normal;fill:#552200;fill-opacity:1"
         id="tspan824">Sugar</tspan><tspan
         x="35.743347"
         y="34.634098"
         style="font-variant-ligatures:normal;font-variant-caps:normal;font-variant-numeric:normal;font-variant-east-asian:normal;fill:#552200;fill-opacity:1"
         id="tspan826">Rush</tspan></text>
    <rect
       transform="matrix(0.40103,0.91607,-0.85562,0.5176,0,0)"
       x="52.060001"
       y="-72.244003"
       width="2.7669001"
       height="0.74430001"
       rx="0.78615999"
       ry="0.33234"
       fill="#ff00ff"
       stroke-width="0.22239"
       id="rect830" />
    <ellipse
       cx="85.078003"
       cy="6.3990002"
       rx="0.54034001"
       ry="0.63519001"
       fill="#00ffff"
       stroke-width="0.22143"
       id="ellipse832" />
    <rect
       transform="matrix(0.52467,-0.85131,0.76131,0.64838,0,0)"
       x="38.851002"
       y="77.634003"
       width="2.7117"
       height="0.76183999"
       rx="0.77045"
       ry="0.34017"
       fill="#0000ff"
       stroke-width="0.22273"
       id="rect834" />
    <ellipse
       cx="86.821999"
       cy="19.083"
       rx="0.54034001"
       ry="0.63519001"
       fill="#00ffff"
       stroke-width="0.22143"
       id="ellipse836" />
    <rect
       transform="matrix(0.5783,0.81582,-0.71437,0.69977,0,0)"
       x="75.331001"
       y="-55.713001"
       width="2.6844001"
       height="0.77023"
       rx="0.76270002"
       ry="0.34391001"
       fill="#ff0000"
       stroke-width="0.22282"
       id="rect838" />
    <ellipse
       cx="83.668999"
       cy="27.282"
       rx="0.54034001"
       ry="0.63519001"
       fill="#00ff00"
       stroke-width="0.22143"
       id="ellipse840" />
    <rect
       transform="matrix(0.47414,-0.88045,0.80224,0.59701,0,0)"
       x="23.587"
       y="85.268997"
       width="2.7356"
       height="0.75432998"
       rx="0.77726001"
       ry="0.33680999"
       fill="#ff00ff"
       stroke-width="0.22261"
       id="rect842" />
  </g>
</svg>
